HD DESI ROCKERS RELEASES
===========================================================================


Complete name                    : Ratatouille.Dual Audio (Hindi-Eng)720p.BluRay.DTS.x264_Djvikas
Format                           : Matroska
File size                        : 4.51 GiB
Duration                         : 1h 50mn
Overall bit rate                 : 5 836 Kbps
Movie name                       : Ratatouille.2007.720p.BluRay.DTS.x264-DJVikas
Writing library                  : matroska muxer by Alexander Noe, build date Aug 30 2008

Video
ID                               : 1
Format                           : AVC
Format/Info                      : Advanced Video Codec
Format profile                   : High@L5.1
Format settings, CABAC           : Yes
Format settings, ReFrames        : 11 frames
Muxing mode                      : Container profile=Unknown@5.1
Codec ID                         : V_MPEG4/ISO/AVC
Duration                         : 1h 50mn
Bit rate                         : 4 018 Kbps
Nominal bit rate                 : 4 130 Kbps
Width                            : 1 280 pixels
Height                           : 536 pixels
Display aspect ratio             : 2.35:1
Frame rate                       : 23.976 fps
Resolution                       : 8 bits
Colorimetry                      : 4:2:0
Scan type                        : Progressive
Bits/(Pixel*Frame)               : 0.244
Stream size                      : 3.10 GiB (69%)
Writing library                  : x264 core 56 svn-680
Language                         : English

Audio #1
ID                               : 2
Format                           : DTS
Format/Info                      : Digital Theater Systems
Codec ID                         : A_DTS
Duration                         : 1h 50mn
Bit rate mode                    : Constant
Bit rate                         : 1 510 Kbps
Channel(s)                       : 6 channels
Channel positions                : Front: L C R, Surround: L R, LFE
Sampling rate                    : 48.0 KHz
Resolution                       : 24 bits
Stream size                      : 1.17 GiB (26%)
Title                            : DTS 5.1 @ 1.5 Mbps
Language                         : English

Audio #2
ID                               : 3
Format                           : MPEG Audio
Format version                   : Version 1
Format profile                   : Layer 3
Codec ID                         : A_MPEG/L3
Codec ID/Hint                    : MP3
Duration                         : 1h 50mn
Bit rate mode                    : Constant
Bit rate                         : 192 Kbps
Channel(s)                       : 2 channels
Sampling rate                    : 44.1 KHz
Stream size                      : 152 MiB (3%)
Title                            : Hindi-BY-DJ VIKAS
Writing library                  : LAME3.92

===========================================================================

SCREEN SHOTS  
http://img203.imageshack.us/img203/2135/snapshot20091215172407.jpg
http://img29.imageshack.us/img29/3001/snapshot20091215172055.jpg
http://img338.imageshack.us/img338/9825/snapshot20091215171952.jpg
http://img24.imageshack.us/img24/674/ratatouilledualaudiohin.jpg
http://img256.imageshack.us/img256/674/ratatouilledualaudiohin.jpg
http://img411.imageshack.us/img411/674/ratatouilledualaudiohin.jpg
http://img143.imageshack.us/img143/674/ratatouilledualaudiohin.jpg
http://img41.imageshack.us/img41/674/ratatouilledualaudiohin.jpg
http://img94.imageshack.us/img94/674/ratatouilledualaudiohin.jpg

